<?xml version="1.0" standalone="no"?>
<svg xmlns="http://www.w3.org/2000/svg" viewBox="0 0 150 70" width="150" height="70"><g fill="#ffb39f" color="#ffb39f" transform="translate(52.581 0) scale(0.44) "><svg width="100.0" height="100.0" x="0.0" y="0.0" viewBox="0 0 100 100"><g><path d="M25.661,14.505c1.342,0,2.431-1.088,2.431-2.431s-1.088-6.913-2.431-6.913c-1.343,0-2.431,5.571-2.431,6.913   S24.318,14.505,25.661,14.505z M25.382,9.176c0.095-0.384,0.189-0.719,0.279-1.009c0.09,0.29,0.184,0.624,0.279,1.009   c0.319,1.292,0.489,2.514,0.489,2.899c0,0.423-0.344,0.768-0.767,0.768c-0.423,0-0.768-0.344-0.768-0.768   C24.893,11.69,25.063,10.468,25.382,9.176z"></path><path d="M37.823,14.505c1.342,0,2.431-1.088,2.431-2.431s-1.088-6.913-2.431-6.913s-2.431,5.571-2.431,6.913   S36.481,14.505,37.823,14.505z M37.544,9.176c0.095-0.384,0.189-0.719,0.279-1.009c0.09,0.29,0.184,0.624,0.279,1.009   c0.319,1.292,0.489,2.514,0.489,2.899c0,0.423-0.344,0.768-0.767,0.768c-0.423,0-0.768-0.344-0.768-0.768   C37.056,11.69,37.225,10.468,37.544,9.176z"></path><path d="M49.986,14.505c1.342,0,2.431-1.088,2.431-2.431s-1.088-6.913-2.431-6.913c-1.343,0-2.431,5.571-2.431,6.913   S48.643,14.505,49.986,14.505z M49.707,9.176c0.095-0.384,0.189-0.719,0.279-1.009c0.09,0.29,0.184,0.624,0.279,1.009   c0.319,1.292,0.489,2.514,0.489,2.899c0,0.423-0.344,0.768-0.767,0.768c-0.423,0-0.768-0.344-0.768-0.768   C49.218,11.69,49.388,10.468,49.707,9.176z"></path><path d="M62.148,14.505c1.342,0,2.431-1.088,2.431-2.431s-1.088-6.913-2.431-6.913s-2.431,5.571-2.431,6.913   S60.806,14.505,62.148,14.505z M61.87,9.176c0.095-0.384,0.189-0.719,0.279-1.009c0.09,0.29,0.184,0.624,0.279,1.009   c0.319,1.292,0.489,2.514,0.489,2.899c0,0.423-0.344,0.768-0.768,0.768c-0.423,0-0.768-0.344-0.768-0.768   C61.381,11.69,61.551,10.468,61.87,9.176z"></path><path d="M74.311,14.505c1.343,0,2.431-1.088,2.431-2.431s-1.088-6.913-2.431-6.913c-1.342,0-2.431,5.571-2.431,6.913   S72.968,14.505,74.311,14.505z M74.032,9.176c0.095-0.384,0.189-0.719,0.279-1.009c0.09,0.29,0.184,0.624,0.279,1.009   c0.319,1.292,0.489,2.514,0.489,2.899c0,0.423-0.344,0.768-0.768,0.768c-0.423,0-0.768-0.344-0.768-0.768   C73.543,11.69,73.713,10.468,74.032,9.176z"></path><path d="M94.478,51.587H78.243V38.503c0.323-0.176,0.608-0.362,0.901-0.559c0.23-0.154,0.39-0.413,0.39-0.69V25.909   c0-0.459-0.397-0.871-0.857-0.871h-2.694v-8.392h-3.308v8.392h-8.876v-8.392H60.49v8.392h-8.876v-8.392h-3.308v8.392H39.51v-8.392   h-3.389v8.392h-8.796v-8.392h-3.308v8.392h-2.722c-0.459,0-0.828,0.411-0.828,0.871v11.334c0,0.219,0.068,0.429,0.222,0.585   c0.299,0.302,0.666,0.585,0.989,0.848v12.91H5.494c-0.459,0-0.843,0.347-0.843,0.806v18.013c0,0.255,0.139,0.496,0.34,0.654   c0.306,0.241,0.629,0.47,0.951,0.691v22.224c0,0.459,0.34,0.864,0.8,0.864h86.49c0.459,0,0.828-0.405,0.828-0.864V71.756   c0.323-0.218,0.649-0.444,0.95-0.68c0.201-0.158,0.341-0.399,0.341-0.655V52.393C95.35,51.934,94.937,51.587,94.478,51.587z    M23.371,39.619c1.614,0.733,3.581,1.149,5.585,1.149c3.955,0,7.645-1.706,10.274-4.715c2.632,3.009,6.343,4.715,10.334,4.715   c4.011,0,7.735-1.707,10.368-4.719c1.164,1.308,2.611,2.409,4.236,3.214c1.985,0.985,4.209,1.505,6.401,1.505   c2.065,0,4.042-0.453,6.059-1.377v12.196H23.371V39.619z M92.364,93.144H7.555V72.811c3.066,1.733,6.358,2.61,9.925,2.61   c6.214,0,11.996-2.748,16.014-7.578c4.021,4.83,9.827,7.578,16.085,7.578c3.36,0,6.569-0.773,9.535-2.296   c2.503-1.286,4.763-3.101,6.587-5.284c3.995,4.765,10.004,7.58,16.315,7.58c3.631,0,7.281-0.943,10.348-2.642V93.144z"></path></g></svg></g><path fill="#ec5353" fill-rule="nonzero" d="M2.62 17.42L2.62 2.28Q1.85 2.16 1.16 1.85Q0.48 1.54 0 0.86L0 0.86L0.79 0.05Q1.30 0.53 1.99 0.77Q2.69 1.01 3.65 1.01L3.65 1.01Q4.78 1.01 5.92 0.89Q7.06 0.77 8.57 0.77L8.57 0.77Q10.49 0.77 12.02 1.42Q13.56 2.06 14.64 3.20Q15.72 4.34 16.31 5.88Q16.90 7.42 16.90 9.22L16.90 9.22Q16.90 11.02 16.31 12.56Q15.72 14.11 14.64 15.24Q13.56 16.37 12.02 17.02Q10.49 17.66 8.57 17.66L8.57 17.66Q6.72 17.66 5.56 17.63Q4.39 17.59 3.74 17.54L3.74 17.54Q2.95 17.50 2.62 17.42L2.62 17.42ZM8.57 2.09L8.57 2.09Q7.25 2.09 6.17 2.20Q5.09 2.30 4.08 2.33L4.08 2.33L4.08 16.22Q4.82 16.27 5.92 16.31Q7.01 16.34 8.57 16.34L8.57 16.34Q10.15 16.34 11.42 15.83Q12.70 15.31 13.60 14.36Q14.50 13.42 14.98 12.11Q15.46 10.80 15.46 9.22L15.46 9.22Q15.46 7.63 14.98 6.32Q14.50 5.02 13.60 4.08Q12.70 3.14 11.42 2.62Q10.15 2.09 8.57 2.09ZM30 16.82L29.18 17.62Q28.58 17.18 28.28 16.60Q27.98 16.01 27.86 15.34L27.86 15.34Q26.35 17.66 23.90 17.66L23.90 17.66Q21.82 17.66 20.90 16.66Q19.99 15.65 19.99 13.80L19.99 13.80Q19.99 12.94 20.02 12.23Q20.04 11.52 20.08 10.90Q20.11 10.27 20.15 9.70Q20.18 9.12 20.18 8.54L20.18 8.54Q20.18 7.85 20.08 7.13Q19.97 6.41 19.66 5.71L19.66 5.71L20.81 5.33Q21.02 5.66 21.16 6.10Q21.29 6.53 21.37 6.98Q21.46 7.44 21.48 7.88Q21.50 8.33 21.50 8.69L21.50 8.69Q21.50 9.26 21.47 9.78Q21.43 10.30 21.40 10.85Q21.36 11.40 21.34 12.05Q21.31 12.70 21.31 13.54L21.31 13.54Q21.31 15.02 21.92 15.72Q22.54 16.42 23.90 16.42L23.90 16.42Q25.18 16.42 26.04 15.76Q26.90 15.10 27.74 13.94L27.74 13.94L27.74 5.47L29.06 5.47L29.06 13.97Q29.06 15.82 30 16.82L30 16.82ZM33.24 13.99L33.24 0L34.56 0L34.56 13.99Q34.56 14.95 34.80 15.65Q35.04 16.34 35.52 16.85L35.52 16.85L34.70 17.64Q34.25 17.33 33.96 16.90Q33.67 16.46 33.52 15.98Q33.36 15.50 33.30 15Q33.24 14.50 33.24 13.99L33.24 13.99ZM39.89 11.42L39.89 11.42Q39.89 13.87 40.90 15.14Q41.90 16.42 43.70 16.42L43.70 16.42Q44.54 16.42 45.34 16.08Q46.13 15.74 46.90 15.26L46.90 15.26L47.52 16.27Q46.78 16.85 45.79 17.26Q44.81 17.66 43.66 17.66L43.66 17.66Q41.30 17.66 39.91 16.07Q38.52 14.47 38.52 11.50L38.52 11.50Q38.52 10.49 38.71 9.38Q38.90 8.28 39.42 7.36Q39.94 6.43 40.85 5.83Q41.76 5.23 43.22 5.23L43.22 5.23Q43.94 5.23 44.78 5.29Q45.62 5.35 46.44 5.42L46.44 5.42L46.44 6.67Q45.50 6.60 44.59 6.54Q43.68 6.48 43.06 6.48L43.06 6.48Q42.14 6.48 41.53 6.89Q40.92 7.30 40.56 7.98Q40.20 8.66 40.04 9.56Q39.89 10.46 39.89 11.42ZM53.23 12.62L50.40 12.62Q50.62 14.50 51.59 15.46Q52.56 16.42 54.43 16.42L54.43 16.42Q55.44 16.42 56.35 16.08Q57.26 15.74 58.18 15.26L58.18 15.26L58.80 16.27Q57.96 16.85 56.84 17.26Q55.73 17.66 54.43 17.66L54.43 17.66Q51.72 17.66 50.34 16.07Q48.96 14.47 48.96 11.50L48.96 11.50Q48.96 10.25 49.33 9.12Q49.70 7.99 50.39 7.13Q51.07 6.26 52.03 5.75Q52.99 5.23 54.17 5.23L54.17 5.23Q55.06 5.23 55.85 5.48Q56.64 5.74 57.23 6.20Q57.82 6.67 58.16 7.36Q58.51 8.04 58.51 8.88L58.51 8.88Q58.51 9.94 58.06 10.66Q57.60 11.38 56.87 11.81Q56.14 12.24 55.19 12.43Q54.24 12.62 53.23 12.62L53.23 12.62ZM54.17 6.41L54.17 6.41Q53.30 6.41 52.60 6.84Q51.89 7.27 51.38 7.97Q50.88 8.66 50.60 9.55Q50.33 10.44 50.33 11.38L50.33 11.38L53.23 11.38Q54.46 11.38 55.22 11.15Q55.99 10.92 56.42 10.56Q56.86 10.20 57 9.76Q57.14 9.31 57.14 8.88L57.14 8.88Q57.14 7.75 56.32 7.08Q55.49 6.41 54.17 6.41ZM73.34 2.16L73.34 2.16Q71.90 2.16 71.14 2.84Q70.37 3.53 70.37 4.54L70.37 4.54Q70.37 5.42 70.70 6.02Q71.04 6.62 71.59 7.03Q72.14 7.44 72.85 7.73Q73.56 8.02 74.33 8.28L74.33 8.28Q75.14 8.57 75.98 8.96Q76.82 9.36 77.50 9.95Q78.17 10.54 78.59 11.36Q79.01 12.19 79.01 13.37L79.01 13.37Q79.01 14.54 78.53 15.36Q78.05 16.18 77.27 16.69Q76.49 17.21 75.48 17.44Q74.47 17.66 73.42 17.66L73.42 17.66Q71.86 17.66 70.45 17.15Q69.05 16.63 68.04 15.89L68.04 15.89L68.83 14.74Q69.29 15.02 69.82 15.30Q70.34 15.58 70.96 15.82Q71.57 16.06 72.24 16.20Q72.91 16.34 73.68 16.34L73.68 16.34Q74.45 16.34 75.14 16.19Q75.84 16.03 76.37 15.68Q76.90 15.34 77.21 14.77Q77.52 14.21 77.52 13.37L77.52 13.37Q77.52 12.50 77.18 11.89Q76.85 11.28 76.30 10.84Q75.74 10.39 75.02 10.07Q74.30 9.74 73.54 9.46L73.54 9.46Q72.72 9.14 71.89 8.80Q71.06 8.45 70.39 7.91Q69.72 7.37 69.30 6.56Q68.88 5.76 68.88 4.54L68.88 4.54Q68.88 3.79 69.20 3.12Q69.53 2.45 70.14 1.94Q70.75 1.44 71.63 1.14Q72.50 0.84 73.58 0.84L73.58 0.84Q74.30 0.84 74.86 0.86Q75.41 0.89 75.74 0.89L75.74 0.89Q76.56 0.89 77.03 0.71Q77.50 0.53 78 0.05L78 0.05L78.79 0.86Q78.46 1.32 78.12 1.58Q77.78 1.85 77.41 1.99Q77.04 2.14 76.63 2.17Q76.22 2.21 75.74 2.21L75.74 2.21Q75.34 2.21 74.69 2.18Q74.04 2.16 73.34 2.16ZM84.77 17.66L84.77 17.66Q83.95 17.66 83.24 17.45Q82.54 17.23 82.02 16.80Q81.50 16.37 81.22 15.72Q80.93 15.07 80.93 14.23L80.93 14.23Q80.93 13.22 81.37 12.55Q81.82 11.88 82.54 11.46Q83.26 11.04 84.16 10.87Q85.06 10.70 85.99 10.70L85.99 10.70L88.32 10.70L88.32 9.36Q88.32 7.87 87.72 7.18Q87.12 6.48 85.82 6.48L85.82 6.48Q84.86 6.48 83.88 6.89Q82.90 7.30 82.27 7.78L82.27 7.78L81.62 6.77Q82.32 6.14 83.46 5.69Q84.60 5.23 85.82 5.23L85.82 5.23Q87.84 5.23 88.74 6.25Q89.64 7.27 89.64 9.10L89.64 9.10L89.64 13.97Q89.64 15.82 90.58 16.82L90.58 16.82L89.76 17.62Q89.26 17.23 88.97 16.74Q88.68 16.25 88.51 15.70L88.51 15.70Q88.06 16.61 87.12 17.14Q86.18 17.66 84.77 17.66ZM84.77 16.42L84.77 16.42Q85.49 16.42 86.11 16.21Q86.74 16.01 87.23 15.62Q87.72 15.24 88.01 14.66Q88.30 14.09 88.32 13.34L88.32 13.34L88.32 11.93L85.99 11.93Q85.32 11.93 84.66 12.01Q84 12.10 83.47 12.35Q82.94 12.60 82.62 13.06Q82.30 13.51 82.30 14.23L82.30 14.23Q82.30 15.43 82.94 15.92Q83.59 16.42 84.77 16.42ZM98.74 5.23L98.74 5.23Q99.96 5.23 100.91 5.71Q101.86 6.19 102.52 7.03Q103.18 7.87 103.51 8.99Q103.85 10.10 103.85 11.40L103.85 11.40Q103.85 12.74 103.45 13.88Q103.06 15.02 102.32 15.86Q101.59 16.70 100.56 17.18Q99.53 17.66 98.26 17.66L98.26 17.66Q97.18 17.66 96.35 17.59Q95.52 17.52 94.97 17.42L94.97 17.42Q94.32 17.33 93.82 17.18L93.82 17.18L93.82 0L95.14 0L95.14 7.03Q95.69 6.19 96.62 5.71Q97.56 5.23 98.74 5.23ZM98.74 6.48L98.74 6.48Q98.14 6.48 97.54 6.67Q96.94 6.86 96.43 7.25Q95.93 7.63 95.57 8.21Q95.21 8.78 95.14 9.55L95.14 9.55L95.14 16.20Q95.57 16.25 96.41 16.33Q97.25 16.42 98.23 16.42L98.23 16.42Q99.19 16.42 99.97 16.06Q100.75 15.70 101.32 15.05Q101.88 14.40 102.18 13.49Q102.48 12.58 102.48 11.47L102.48 11.47Q102.48 10.51 102.24 9.60Q102.00 8.69 101.53 8.00Q101.06 7.32 100.37 6.90Q99.67 6.48 98.74 6.48ZM112.22 17.66L112.22 17.66Q110.88 17.66 109.78 17.21Q108.67 16.75 107.89 15.92Q107.11 15.10 106.68 13.97Q106.25 12.84 106.25 11.50L106.25 11.50Q106.25 10.15 106.68 9.01Q107.11 7.87 107.89 7.03Q108.67 6.19 109.78 5.71Q110.88 5.23 112.22 5.23L112.22 5.23Q113.57 5.23 114.66 5.70Q115.75 6.17 116.53 7.00Q117.31 7.82 117.74 8.96Q118.18 10.10 118.18 11.42L118.18 11.42Q118.18 12.77 117.74 13.92Q117.31 15.07 116.53 15.90Q115.75 16.73 114.66 17.20Q113.57 17.66 112.22 17.66ZM112.22 6.48L112.22 6.48Q111.17 6.48 110.33 6.84Q109.49 7.20 108.88 7.85Q108.26 8.50 107.94 9.41Q107.62 10.32 107.62 11.42L107.62 11.42Q107.62 12.55 107.94 13.48Q108.26 14.40 108.88 15.05Q109.49 15.70 110.33 16.06Q111.17 16.42 112.22 16.42L112.22 16.42Q113.26 16.42 114.11 16.04Q114.96 15.67 115.56 15.01Q116.16 14.35 116.48 13.43Q116.81 12.50 116.81 11.38L116.81 11.38Q116.81 10.27 116.48 9.37Q116.16 8.47 115.56 7.82Q114.96 7.18 114.11 6.83Q113.26 6.48 112.22 6.48ZM127.63 5.42L127.63 6.67Q127.42 6.65 127.15 6.60L127.15 6.60Q126.94 6.55 126.66 6.53Q126.38 6.50 126.05 6.50L126.05 6.50Q125.06 6.50 124.27 7.13Q123.48 7.75 122.86 8.86L122.86 8.86L122.86 8.95L122.86 17.42L121.54 17.42L121.54 8.95Q121.54 7.99 121.30 7.30Q121.06 6.60 120.58 6.10L120.58 6.10L121.39 5.30Q121.94 5.71 122.26 6.25Q122.57 6.79 122.71 7.42L122.71 7.42Q123.34 6.31 124.18 5.77Q125.02 5.23 126.22 5.23L126.22 5.23Q126.48 5.23 126.74 5.26Q127.01 5.28 127.20 5.33L127.20 5.33Q127.44 5.38 127.63 5.42L127.63 5.42ZM133.34 12.62L130.51 12.62Q130.73 14.50 131.70 15.46Q132.67 16.42 134.54 16.42L134.54 16.42Q135.55 16.42 136.46 16.08Q137.38 15.74 138.29 15.26L138.29 15.26L138.91 16.27Q138.07 16.85 136.96 17.26Q135.84 17.66 134.54 17.66L134.54 17.66Q131.83 17.66 130.45 16.07Q129.07 14.47 129.07 11.50L129.07 11.50Q129.07 10.25 129.44 9.12Q129.82 7.99 130.50 7.13Q131.18 6.26 132.14 5.75Q133.10 5.23 134.28 5.23L134.28 5.23Q135.17 5.23 135.96 5.48Q136.75 5.74 137.34 6.20Q137.93 6.67 138.28 7.36Q138.62 8.04 138.62 8.88L138.62 8.88Q138.62 9.94 138.17 10.66Q137.71 11.38 136.98 11.81Q136.25 12.24 135.30 12.43Q134.35 12.62 133.34 12.62L133.34 12.62ZM134.28 6.41L134.28 6.41Q133.42 6.41 132.71 6.84Q132.00 7.27 131.50 7.97Q130.99 8.66 130.72 9.55Q130.44 10.44 130.44 11.38L130.44 11.38L133.34 11.38Q134.57 11.38 135.34 11.15Q136.10 10.92 136.54 10.56Q136.97 10.20 137.11 9.76Q137.26 9.31 137.26 8.88L137.26 8.88Q137.26 7.75 136.43 7.08Q135.60 6.41 134.28 6.41ZM140.95 16.27L141.62 15.26Q142.25 15.67 143.15 16.04Q144.05 16.42 145.20 16.42L145.20 16.42Q145.70 16.42 146.17 16.31Q146.64 16.20 147.00 15.97Q147.36 15.74 147.56 15.36Q147.77 14.98 147.77 14.42L147.77 14.42Q147.77 13.58 147.31 13.10Q146.86 12.62 146.17 12.30Q145.49 11.98 144.70 11.71Q143.90 11.45 143.22 11.03Q142.54 10.61 142.08 9.94Q141.62 9.26 141.62 8.14L141.62 8.14Q141.62 7.56 141.86 7.03Q142.10 6.50 142.56 6.11Q143.02 5.71 143.66 5.47Q144.31 5.23 145.13 5.23L145.13 5.23Q145.85 5.23 146.52 5.27Q147.19 5.30 148.01 5.38L148.01 5.38L148.01 6.62Q146.14 6.48 144.96 6.48L144.96 6.48Q144.02 6.48 143.52 6.98Q143.02 7.49 143.02 8.14L143.02 8.14Q143.02 8.98 143.47 9.44Q143.93 9.91 144.61 10.24Q145.30 10.56 146.09 10.84Q146.88 11.11 147.56 11.53Q148.25 11.95 148.70 12.62Q149.16 13.30 149.16 14.42L149.16 14.42Q149.16 15.31 148.81 15.92Q148.46 16.54 147.88 16.92Q147.29 17.30 146.54 17.48Q145.80 17.66 145.01 17.66L145.01 17.66Q143.81 17.66 142.75 17.26Q141.70 16.85 140.95 16.27L140.95 16.27Z" transform="translate(0, 52)"></path></svg>